<svg xmlns="http://www.w3.org/2000/svg" id="Layer_1" data-name="Layer 1" viewBox="0 0 128 128" width="375" height="375" version="1.1" xmlns:xlink="http://www.w3.org/1999/xlink" xmlns:svgjs="http://svgjs.dev/svgjs"><g transform="matrix(1,0,0,1,0,0)"><title/><path d="M60.84094,56H31a2,2,0,0,0,0,4H60A9.93343,9.93343,0,0,1,60.84094,56Z" fill="#49301dff" data-original-color="#000000ff" stroke="none"/><path d="M101,64H77a4.004,4.004,0,0,0-4,4v6a4.004,4.004,0,0,0,4,4h24a4.004,4.004,0,0,0,4-4V68A4.004,4.004,0,0,0,101,64ZM77,74V68h24l.00293,6Z" fill="#49301dff" data-original-color="#000000ff" stroke="none"/><path d="M34.77344,34h8.49023a2,2,0,1,0,0-4H34.77344A5.75048,5.75048,0,0,0,29,35.71387v5.57227A5.75048,5.75048,0,0,0,34.77344,47h7.54688a2.93912,2.93912,0,0,0,2.94336-2.92871V38.791a2.0001,2.0001,0,0,0-2-2H37.957a2,2,0,0,0,0,4h3.30664V43H34.77344A1.74643,1.74643,0,0,1,33,41.28613V35.71387A1.74643,1.74643,0,0,1,34.77344,34Z" fill="#49301dff" data-original-color="#000000ff" stroke="none"/><path d="M63.42285,42.292V41.208A4.83643,4.83643,0,0,0,58.4502,36.5H55.583c-.21582,0-.335-.125-.335-.167V34.167c0-.042.11914-.167.335-.167h4.99121a2,2,0,0,0,0-4H55.583a4.258,4.258,0,0,0-4.335,4.167v2.166A4.258,4.258,0,0,0,55.583,40.5h2.91992a.8464.8464,0,0,1,.91992.708v1.084a.8464.8464,0,0,1-.91992.708H54.09668a2,2,0,0,0,0,4h4.40625A4.8231,4.8231,0,0,0,63.42285,42.292Z" fill="#49301dff" data-original-color="#000000ff" stroke="none"/><path d="M73.89063,47a2.0001,2.0001,0,0,0,2-2V34H79a2,2,0,0,0,0-4H68.78027a2,2,0,0,0,0,4h3.11035V45A2.0001,2.0001,0,0,0,73.89063,47Z" fill="#49301dff" data-original-color="#000000ff" stroke="none"/><path d="M18,5.74219A1.74483,1.74483,0,0,1,19.74414,4H70V20.41406A5.65647,5.65647,0,0,0,75.71191,26H92V50h4V24.916a4.4001,4.4001,0,0,0-.58594-2.33008l-22-22A2.27031,2.27031,0,0,0,71.80859,0H19.74414A5.75,5.75,0,0,0,14,5.74219v76.2771a9.94551,9.94551,0,0,1,4-1.81769ZM74,6.82813,89.17188,22h-13.46A1.65448,1.65448,0,0,1,74,20.41406Z" fill="#49301dff" data-original-color="#000000ff" stroke="none"/><path d="M24,114a2,2,0,0,0,0,4h6a2,2,0,0,0,0-4Z" fill="#49301dff" data-original-color="#000000ff" stroke="none"/><path d="M104,84h-2a2,2,0,0,0,0,4h2a2,2,0,0,0,0-4Z" fill="#49301dff" data-original-color="#000000ff" stroke="none"/><path d="M104,92h-2a2,2,0,0,0,0,4h2a2,2,0,0,0,0-4Z" fill="#49301dff" data-original-color="#000000ff" stroke="none"/><path d="M104,116h-2a2,2,0,0,0,0,4h2a2,2,0,0,0,0-4Z" fill="#49301dff" data-original-color="#000000ff" stroke="none"/><path d="M57.69226,124H20a2.00261,2.00261,0,0,1-2-2V100H52.00458a24.82618,24.82618,0,0,1,1.55212-4H18V90a2.00261,2.00261,0,0,1,2-2H59.77893a25.04407,25.04407,0,0,1,6.42792-4H20a6.00656,6.00656,0,0,0-6,6v32a6.00656,6.00656,0,0,0,6,6H62.46106A25.18188,25.18188,0,0,1,57.69226,124Z" fill="#49301dff" data-original-color="#000000ff" stroke="none"/><path d="M97,107a21,21,0,1,0-21,21A21.02422,21.02422,0,0,0,97,107ZM76,124a17,17,0,1,1,17-17A17.019,17.019,0,0,1,76,124Z" fill="#49301dff" data-original-color="#000000ff" stroke="none"/><path d="M76.67285,105.292c-1.3125-.3916-2.13379-.66992-2.46582-1.24316a1.37629,1.37629,0,0,1-.04395-1.36914c.43262-.69434,1.61816-.81738,2.52539-.64062a2.20673,2.20673,0,0,1,.83984.38965,2.00037,2.00037,0,1,0,2.35742-3.23242,6.31151,6.31151,0,0,0-1.94826-.95837V97a2,2,0,1,0-4,0v1.24713a5.23958,5.23958,0,0,0-3.19139,7.80756c1.15234,1.98926,3.167,2.58887,4.78516,3.07031,1.68262.501,2.2373.75879,2.43066,1.38672.18457.60547-.41016,1.05273-.748,1.2041a2.98628,2.98628,0,0,1-3.02832-.54395,2.00005,2.00005,0,0,0-2.5918,3.04688,7.09212,7.09212,0,0,0,2.34373,1.306V117a2,2,0,1,0,4,0v-1.31958a6.14316,6.14316,0,0,0,.90627-.31128,5.019,5.019,0,0,0,2.94336-6.02734C80.93262,106.56055,78.4707,105.82715,76.67285,105.292Z" fill="#49301dff" data-original-color="#000000ff" stroke="none"/><path d="M60,64H31a2,2,0,0,0,0,4H60Z" fill="#49301dff" data-original-color="#000000ff" stroke="none"/><path d="M29,74a2.0001,2.0001,0,0,0,2,2H60V72H31A2.0001,2.0001,0,0,0,29,74Z" fill="#49301dff" data-original-color="#000000ff" stroke="none"/><path d="M92,84a1.96435,1.96435,0,0,0-1.96759,2.32117A25.14986,25.14986,0,0,1,92.22107,88H94a2,2,0,0,0,0-4Z" fill="#49301dff" data-original-color="#000000ff" stroke="none"/><path d="M104,100h-2a1.99135,1.99135,0,0,0-1.72974,1.01324,24.8258,24.8258,0,0,1,.48676,2.54218A1.981,1.981,0,0,0,102,104h2a2,2,0,0,0,0-4Z" fill="#49301dff" data-original-color="#000000ff" stroke="none"/><path d="M104,108h-2a1.98155,1.98155,0,0,0-1.03345.29559,24.93347,24.93347,0,0,1-.36676,3.13013A1.992,1.992,0,0,0,102,112h2a2,2,0,0,0,0-4Z" fill="#49301dff" data-original-color="#000000ff" stroke="none"/><path d="M108,54H70a6.00656,6.00656,0,0,0-6,6V80h4V60a2.00261,2.00261,0,0,1,2-2h38a2.00261,2.00261,0,0,1,2,2v62a2.00261,2.00261,0,0,1-2,2H94.30774a25.18188,25.18188,0,0,1-4.7688,4H108a6.00656,6.00656,0,0,0,6-6V60A6.00656,6.00656,0,0,0,108,54Z" fill="#49301dff" data-original-color="#000000ff" stroke="none"/></g></svg>