<svg id="Layer_1" data-name="Layer 1" xmlns="http://www.w3.org/2000/svg" viewBox="0 0 45.78 31.22"><defs><style>.cls-1{fill:#ed692f;}</style></defs><path d="M29.3,28.9a7.8,7.8,0,1,0-8.6,0,12.51,12.51,0,0,0-8.19,11.71h2.08a10.41,10.41,0,1,1,20.82,0h2.08A12.51,12.51,0,0,0,29.3,28.9Zm-10-6.5A5.72,5.72,0,1,1,25,28.12,5.72,5.72,0,0,1,19.28,22.4Z" transform="translate(-2.11 -9.39)"/><path class="cls-1" d="M39.71,23.7A7.8,7.8,0,1,0,30,11.55a8.11,8.11,0,0,0-1.34,1.69,9.5,9.5,0,0,1,1.84,1,5.75,5.75,0,0,1,1.4-1.55,5.72,5.72,0,1,1,5,10,5.62,5.62,0,0,1-1.54.22,4.93,4.93,0,0,1-.55,0,9.64,9.64,0,0,1-.35,2.17c.3,0,.59-.06.9-.06a10.19,10.19,0,0,1,1.24.08,10.42,10.42,0,0,1,9.16,10.33h2.08A12.49,12.49,0,0,0,39.71,23.7Z" transform="translate(-2.11 -9.39)"/><path class="cls-1" d="M14.59,25c.31,0,.6,0,.9.06a9.64,9.64,0,0,1-.35-2.17,4.93,4.93,0,0,1-.55,0,5.62,5.62,0,0,1-1.54-.22,5.71,5.71,0,1,1,6.42-8.49,9.5,9.5,0,0,1,1.84-1A8.11,8.11,0,0,0,20,11.55,7.8,7.8,0,1,0,10.29,23.7,12.49,12.49,0,0,0,2.11,35.41H4.19a10.42,10.42,0,0,1,9.16-10.33A10.19,10.19,0,0,1,14.59,25Z" transform="translate(-2.11 -9.39)"/></svg>