<svg id="Layer_1" data-name="Layer 1" xmlns="http://www.w3.org/2000/svg" viewBox="0 0 37.64 44.62"><defs><style>.cls-1{fill:#ed692f;}.cls-2{fill:#fff;}</style></defs><rect class="cls-1" x="15.95" width="21.69" height="44.62"/><rect class="cls-2" x="29.16" y="4.97" width="5.57" height="5.57"/><rect class="cls-2" x="29.16" y="14.67" width="5.57" height="5.57"/><rect class="cls-2" x="29.16" y="24.38" width="5.57" height="5.57"/><rect class="cls-2" x="29.16" y="34.08" width="5.57" height="5.57"/><rect class="cls-2" x="18.85" y="4.97" width="5.57" height="5.57"/><rect class="cls-2" x="18.85" y="14.67" width="5.57" height="5.57"/><rect class="cls-2" x="18.85" y="24.38" width="5.57" height="5.57"/><rect class="cls-2" x="18.85" y="34.08" width="5.57" height="5.57"/><rect class="cls-1" y="22.57" width="14.03" height="22.04"/><rect class="cls-2" x="8.55" y="25.52" width="3.6" height="3.6"/><rect class="cls-2" x="8.55" y="31.79" width="3.6" height="3.6"/><rect class="cls-2" x="8.55" y="38.07" width="3.6" height="3.6"/><rect class="cls-2" x="1.88" y="25.52" width="3.6" height="3.6"/><rect class="cls-2" x="1.88" y="31.79" width="3.6" height="3.6"/><rect class="cls-2" x="1.88" y="38.07" width="3.6" height="3.6"/></svg>