<svg id="Layer_1" data-name="Layer 1" xmlns="http://www.w3.org/2000/svg" viewBox="0 0 45.69 22.62"><defs><style>.cls-1{fill:#ed692f;}.cls-2{fill:none;}</style></defs><polygon class="cls-1" points="0 0.31 29.59 0 31.32 0 31.32 14 0.31 14 0 0.31"/><path class="cls-2" d="M37.17,17.15c-.07,1.76,0,3.53,0,5.3,1.7,0,3.38,0,5.09,0-.47-1.77-1-3.5-1.5-5.25C39.55,17.13,38.35,17.15,37.17,17.15Z" transform="translate(-2 -13.69)"/><path class="cls-2" d="M38.61,31.14a1.19,1.19,0,0,0-1.17,1,1.5,1.5,0,0,0,0,.22,1.21,1.21,0,0,0,.38.87,1.2,1.2,0,0,0,.81.32,1.15,1.15,0,0,0,.8-.32,1.18,1.18,0,0,0,.39-.87,1.5,1.5,0,0,0,0-.22A1.2,1.2,0,0,0,38.61,31.14Z" transform="translate(-2 -13.69)"/><path class="cls-2" d="M8.14,31.65a1.17,1.17,0,0,0-1-.51,1.2,1.2,0,0,0-1,.51,1.25,1.25,0,0,0-.19.46,1.5,1.5,0,0,0,0,.22,1.18,1.18,0,0,0,.39.87,1.16,1.16,0,0,0,1.6,0,1.18,1.18,0,0,0,.39-.87,1.5,1.5,0,0,0,0-.22A1.12,1.12,0,0,0,8.14,31.65Z" transform="translate(-2 -13.69)"/><path class="cls-2" d="M43.55,27.89c0,.62,0,1.22,0,1.84,1,0,2.08,0,3.11,0,0-.6,0-1.2,0-1.82Q45.1,27.86,43.55,27.89Z" transform="translate(-2 -13.69)"/><path class="cls-1" d="M38.61,28.35a4,4,0,1,0,4,4A4,4,0,0,0,38.61,28.35Zm.8,4.85a1.15,1.15,0,0,1-.8.32,1.2,1.2,0,0,1-.81-.32,1.21,1.21,0,0,1-.38-.87,1.5,1.5,0,0,1,0-.22,1.19,1.19,0,0,1,2.34,0,1.5,1.5,0,0,1,0,.22A1.18,1.18,0,0,1,39.41,33.2Z" transform="translate(-2 -13.69)"/><path class="cls-1" d="M7.18,28.35h0a4,4,0,0,0-3.91,3.3,3.82,3.82,0,0,0-.06.68,4,4,0,0,0,8,0,3.82,3.82,0,0,0-.06-.68A4,4,0,0,0,7.18,28.35ZM8,33.2a1.16,1.16,0,0,1-1.6,0A1.18,1.18,0,0,1,6,32.33a1.5,1.5,0,0,1,0-.22,1.25,1.25,0,0,1,.19-.46,1.2,1.2,0,0,1,1-.51,1.17,1.17,0,0,1,1,.51,1.12,1.12,0,0,1,.2.46,1.5,1.5,0,0,1,0,.22A1.18,1.18,0,0,1,8,33.2Z" transform="translate(-2 -13.69)"/><path class="cls-1" d="M5.74,28.35H2.38v3.3H3v0A4.23,4.23,0,0,1,5.74,28.35Z" transform="translate(-2 -13.69)"/><path class="cls-1" d="M46.85,29.58c0-1.81,0-3.62,0-5.43-.58-.27-1.17-.53-1.75-.81l-1.22-.58-.15-.07c-.83-.44-.8-1.56-1.11-2.34-.33-1.34-.87-2.64-1.2-4a8.1,8.1,0,0,1-.25-2.6c-2.38,0-4.74,0-7.1,0h0V16.7h0c0,3.88,0,7.76,0,11.64H8.6a4.23,4.23,0,0,1,2.74,3.26v0H34.07c.58-1.85,2-3.63,4.11-3.75a4.61,4.61,0,0,1,4.94,3.63c1.52,0,3,0,4.55,0,0-.63,0-1.28,0-1.92Zm-9.7-7.13c0-1.77,0-3.54,0-5.3,1.18,0,2.38,0,3.57,0,.46,1.75,1,3.48,1.5,5.25C40.53,22.46,38.85,22.45,37.15,22.45Zm9.51,7.26c-1,0-2.08,0-3.11,0,0-.62,0-1.22,0-1.84q1.55,0,3.09,0C46.68,28.51,46.68,29.11,46.66,29.71Z" transform="translate(-2 -13.69)"/></svg>