<svg id="Layer_1" data-name="Layer 1" xmlns="http://www.w3.org/2000/svg" viewBox="0 0 29.89 29.86"><defs><style>.cls-1{fill:#ed692f;}</style></defs><g id="_103_Delivery_Logistic_Order_Package_Shipping" data-name="103, Delivery, Logistic, Order, Package, Shipping"><path class="cls-1" d="M39.26,17.55,25,10.1a.54.54,0,0,0-.55,0L10.17,17.55a.61.61,0,0,0-.35.55V39.24a.66.66,0,0,0,.65.64H39.06a.66.66,0,0,0,.65-.64V18.1A.84.84,0,0,0,39.26,17.55ZM14.74,32.37H34.63v1.25H14.74Zm0-2.48H34.63v1.24H14.74Zm0-2.49H34.63v1.24H14.74Zm19.89-1.24H14.74V24.91H34.63v1.25Zm-19.89,8.7H34.63V36.1H14.74ZM34.63,23.67H14.74V22.43H34.63v1.24ZM14.74,38.59V37.35H34.63v1.24Zm23.62,0H35.88V21.83a.66.66,0,0,0-.65-.65H14.15a.66.66,0,0,0-.65.65V38.59H11V18.45l13.68-7.16L38.36,18.4Z" transform="translate(-9.82 -10.02)"/><path class="cls-1" d="M22.2,15.61a2.49,2.49,0,1,0,2.49-2.48A2.49,2.49,0,0,0,22.2,15.61Zm3.73,0a1.24,1.24,0,1,1-1.24-1.24A1.24,1.24,0,0,1,25.93,15.61Z" transform="translate(-9.82 -10.02)"/></g></svg>